<?xml version="1.0" encoding="iso-8859-1"?>
<!-- Generator: Adobe Illustrator 19.1.0, SVG Export Plug-In . SVG Version: 6.00 Build 0)  -->
<svg version="1.1" id="Capa_1" xmlns="http://www.w3.org/2000/svg" xmlns:xlink="http://www.w3.org/1999/xlink" x="0px" y="0px"
	 viewBox="0 0 63.161 63.161" style="enable-background:new 0 0 63.161 63.161;" xml:space="preserve">
<g>
	<g id="group-2svg">
		<path id="path-1_10_" d="M31.657,63.075c-2.686,0-5.002-1.634-5.901-4.163l-0.955-2.682c-2.021-0.548-3.953-1.34-5.763-2.359
			l-2.545,1.208c-0.872,0.414-1.784,0.624-2.713,0.624c-2.112,0-4.144-1.137-5.301-2.967c-1.157-1.831-1.28-4.019-0.338-6.001
			l1.201-2.544c-1.038-1.835-1.833-3.763-2.376-5.747l-2.743-0.96C1.655,36.57,0,34.228,0,31.513c0-2.654,1.615-4.943,4.114-5.831
			l2.597-0.981c0.551-1.992,1.226-3.842,2.012-5.517l-1.012-2.83c-0.867-1.884-0.725-3.975,0.396-5.749
			c1.227-1.941,3.391-3.146,5.648-3.146c0.949,0,1.872,0.21,2.745,0.625l2.932,1.393c1.658-0.896,3.405-1.602,5.211-2.107
			l1.114-3.12c0.899-2.53,3.215-4.164,5.901-4.164S36.66,1.72,37.559,4.25l1.15,3.233c1.726,0.513,3.395,1.213,4.98,2.086
			l3.128-1.485c0.872-0.415,1.784-0.625,2.712-0.625c2.11,0,4.139,1.135,5.294,2.963c1.158,1.833,1.282,4.021,0.339,6.004
			l-1.483,3.119c0.877,1.587,1.581,3.26,2.096,4.991l3.222,1.146c2.529,0.899,4.164,3.214,4.164,5.899s-1.635,5.001-4.164,5.9
			l-3.098,1.1c-0.507,1.823-1.218,3.582-2.12,5.247l1.383,2.908c0.943,1.983,0.819,4.172-0.339,6.004
			c-1.155,1.828-3.184,2.963-5.294,2.963c0,0,0,0-0.001,0c-0.927,0-1.84-0.21-2.711-0.624l-2.744-1.304
			c-1.748,1.003-3.6,1.79-5.522,2.347l-0.993,2.79C36.659,61.441,34.343,63.075,31.657,63.075z M19.11,50.676
			c0.271,0,0.54,0.074,0.779,0.218c1.976,1.2,4.13,2.082,6.404,2.621c0.494,0.118,0.896,0.478,1.066,0.956l1.223,3.436
			c0.569,1.599,1.962,2.169,3.075,2.169c1.113,0,2.506-0.57,3.075-2.169l1.255-3.527c0.167-0.471,0.558-0.827,1.042-0.95
			c2.172-0.555,4.25-1.439,6.177-2.629c0.432-0.267,0.973-0.296,1.431-0.078l3.467,1.647c1.532,0.727,3.304,0.158,4.184-1.233
			c0.35-0.554,0.838-1.697,0.165-3.114l-1.658-3.487c-0.017-0.035-0.062-0.141-0.075-0.177c-0.164-0.425-0.15-0.96,0.08-1.353
			c1.078-1.848,1.881-3.837,2.388-5.913c0.114-0.469,0.449-0.855,0.897-1.036c0.113-0.048,0.183-0.079,0.257-0.105l3.65-1.296
			c1.599-0.57,2.169-1.962,2.169-3.075c0-1.113-0.57-2.505-2.17-3.074l-3.639-1.294c-0.133-0.047-0.263-0.103-0.393-0.161
			c-0.414-0.185-0.758-0.563-0.874-1.001c-0.524-1.98-1.323-3.882-2.374-5.654c-0.234-0.393-0.275-0.87-0.113-1.297
			c0.06-0.158,0.121-0.314,0.195-0.47l1.66-3.491c0.673-1.417,0.185-2.559-0.166-3.115c-0.879-1.389-2.655-1.96-4.182-1.232
			l-3.489,1.657c-0.156,0.075-0.317,0.139-0.478,0.199c-0.427,0.164-0.903,0.122-1.297-0.11c-1.772-1.048-3.67-1.844-5.645-2.365
			c-0.439-0.116-0.802-0.424-0.987-0.838c-0.072-0.162-0.132-0.299-0.183-0.443l-1.293-3.637c-0.569-1.6-1.962-2.17-3.075-2.17
			c-1.113,0-2.506,0.57-3.075,2.171l-1.294,3.636c-0.028,0.082-0.065,0.167-0.102,0.252C27,9.573,26.59,9.968,26.136,10.079
			c-2.059,0.504-4.038,1.304-5.881,2.377c-0.413,0.24-0.913,0.269-1.353,0.079c-0.074-0.029-0.138-0.055-0.199-0.084l-3.491-1.659
			c-1.604-0.76-3.621-0.083-4.569,1.415c-0.337,0.534-0.81,1.625-0.189,2.932c0.021,0.045,0.041,0.091,0.058,0.138l1.248,3.487
			c0.058,0.163,0.087,0.333,0.087,0.505c0,0.232-0.053,0.464-0.157,0.671c-0.916,1.841-1.681,3.949-2.275,6.264
			c-0.121,0.473-0.466,0.858-0.923,1.031l-3.345,1.262C3.793,28.978,3,30.103,3,31.513c0,1.137,0.584,2.56,2.222,3.143l3.495,1.223
			c0.482,0.169,0.845,0.572,0.963,1.07c0.527,2.22,1.414,4.37,2.638,6.39c0.261,0.429,0.288,0.961,0.073,1.416l-1.539,3.264
			c-0.674,1.42-0.187,2.561,0.163,3.115c0.881,1.394,2.66,1.963,4.191,1.236l3.261-1.548C18.671,50.724,18.89,50.676,19.11,50.676z"
			/>
		<path id="path-2_10_" d="M31.592,44.61c-6.941,0-12.587-5.645-12.587-12.584s5.646-12.584,12.587-12.584
			s12.587,5.645,12.587,12.584S38.533,44.61,31.592,44.61z M31.592,22.441c-5.287,0-9.587,4.3-9.587,9.585s4.3,9.585,9.587,9.585
			s9.587-4.3,9.587-9.585S36.879,22.441,31.592,22.441z"/>
		<path id="path-3_10_" d="M31.592,51.444c-10.71,0-19.423-8.711-19.423-19.418s8.713-19.418,19.423-19.418
			s19.423,8.711,19.423,19.418S42.302,51.444,31.592,51.444z M31.592,15.607c-9.056,0-16.423,7.366-16.423,16.419
			c0,9.054,7.367,16.419,16.423,16.419c9.055,0,16.423-7.365,16.423-16.419C48.015,22.973,40.647,15.607,31.592,15.607z"/>
	</g>
</g>
<g>
</g>
<g>
</g>
<g>
</g>
<g>
</g>
<g>
</g>
<g>
</g>
<g>
</g>
<g>
</g>
<g>
</g>
<g>
</g>
<g>
</g>
<g>
</g>
<g>
</g>
<g>
</g>
<g>
</g>
</svg>
